<svg width="20" height="20" viewBox="0 0 20 20" fill="none" xmlns="http://www.w3.org/2000/svg">
<path d="M14.5303 6.53033C14.8232 6.23744 14.8232 5.76256 14.5303 5.46967C14.2374 5.17678 13.7626 5.17678 13.4697 5.46967L14.5303 6.53033ZM5.46967 13.4697C5.17678 13.7626 5.17678 14.2374 5.46967 14.5303C5.76256 14.8232 6.23744 14.8232 6.53033 14.5303L5.46967 13.4697ZM6.53034 5.46967C6.23745 5.17678 5.76257 5.17678 5.46968 5.46967C5.17678 5.76256 5.17678 6.23744 5.46968 6.53033L6.53034 5.46967ZM13.4697 14.5303C13.7626 14.8232 14.2374 14.8232 14.5303 14.5303C14.8232 14.2374 14.8232 13.7626 14.5303 13.4697L13.4697 14.5303ZM13.4697 5.46967L5.46967 13.4697L6.53033 14.5303L14.5303 6.53033L13.4697 5.46967ZM5.46968 6.53033L13.4697 14.5303L14.5303 13.4697L6.53034 5.46967L5.46968 6.53033ZM18.25 10C18.25 14.5563 14.5563 18.25 10 18.25V19.75C15.3848 19.75 19.75 15.3848 19.75 10H18.25ZM10 18.25C5.44365 18.25 1.75 14.5563 1.75 10H0.25C0.25 15.3848 4.61522 19.75 10 19.75V18.25ZM1.75 10C1.75 5.44365 5.44365 1.75 10 1.75V0.25C4.61522 0.25 0.25 4.61522 0.25 10H1.75ZM10 1.75C14.5563 1.75 18.25 5.44365 18.25 10H19.75C19.75 4.61522 15.3848 0.25 10 0.25V1.75Z" fill="#DF6D45"/>
</svg>
