<svg width="24" height="18" viewBox="0 0 24 18" fill="none" xmlns="http://www.w3.org/2000/svg">
<path d="M4 6.5L8.5 9.5L12 5L15.5 9.5L20 6.5L18.5 16.5H5L4 6.5Z" fill="#FDCA4B"/>
<path d="M5 3.5C5 4.32843 4.10457 5 3 5C1.89543 5 1 4.32843 1 3.5C1 2.67157 1.89543 2 3 2C4.10457 2 5 2.67157 5 3.5Z" fill="#FDCA4B"/>
<path d="M14 2.5C14 3.32843 13.1046 4 12 4C10.8954 4 10 3.32843 10 2.5C10 1.67157 10.8954 1 12 1C13.1046 1 14 1.67157 14 2.5Z" fill="#FDCA4B"/>
<path d="M23 3.5C23 4.32843 22.1046 5 21 5C19.8954 5 19 4.32843 19 3.5C19 2.67157 19.8954 2 21 2C22.1046 2 23 2.67157 23 3.5Z" fill="#FDCA4B"/>
<path d="M19 17H5L3 5L8.5 9.5L12 4L15.5 9.5L21 5L19 17Z" fill="#FDCA4B"/>
<path d="M22.5 3.5C22.5 4.32843 21.8284 5 21 5C20.1716 5 19.5 4.32843 19.5 3.5C19.5 2.67157 20.1716 2 21 2C21.8284 2 22.5 2.67157 22.5 3.5Z" fill="#FDCA4B"/>
<path d="M13.5 2.5C13.5 3.32843 12.8284 4 12 4C11.1716 4 10.5 3.32843 10.5 2.5C10.5 1.67157 11.1716 1 12 1C12.8284 1 13.5 1.67157 13.5 2.5Z" fill="#FDCA4B"/>
<path d="M4.5 3.5C4.5 4.32843 3.82843 5 3 5C2.17157 5 1.5 4.32843 1.5 3.5C1.5 2.67157 2.17157 2 3 2C3.82843 2 4.5 2.67157 4.5 3.5Z" fill="#FDCA4B"/>
<path d="M4 6.5L4.41603 5.87596L3.09584 4.99584L3.25372 6.57463L4 6.5ZM8.5 9.5L8.08397 10.124L8.66402 10.5107L9.09201 9.96046L8.5 9.5ZM12 5L12.592 4.53954L12 3.77838L11.408 4.53954L12 5ZM15.5 9.5L14.908 9.96046L15.336 10.5107L15.916 10.124L15.5 9.5ZM20 6.5L20.7417 6.61126L20.9929 4.93669L19.584 5.87596L20 6.5ZM18.5 16.5V17.25H19.1459L19.2417 16.6113L18.5 16.5ZM5 16.5L4.25372 16.5746L4.32126 17.25H5V16.5ZM19 17V17.75C19.3666 17.75 19.6795 17.4849 19.7398 17.1233L19 17ZM5 17L4.2602 17.1233C4.32048 17.4849 4.63337 17.75 5 17.75V17ZM3.58397 7.12404L8.08397 10.124L8.91603 8.87596L4.41603 5.87596L3.58397 7.12404ZM9.09201 9.96046L12.592 5.46046L11.408 4.53954L7.90799 9.03954L9.09201 9.96046ZM11.408 5.46046L14.908 9.96046L16.092 9.03954L12.592 4.53954L11.408 5.46046ZM15.916 10.124L20.416 7.12404L19.584 5.87596L15.084 8.87596L15.916 10.124ZM19.2583 6.38874L17.7583 16.3887L19.2417 16.6113L20.7417 6.61126L19.2583 6.38874ZM18.5 15.75H5V17.25H18.5V15.75ZM5.74628 16.4254L4.74628 6.42537L3.25372 6.57463L4.25372 16.5746L5.74628 16.4254ZM4.25 3.5C4.25 3.62522 4.18407 3.79577 3.96421 3.96066C3.74412 4.12573 3.4057 4.25 3 4.25V5.75C3.69887 5.75 4.36045 5.53849 4.86421 5.16066C5.36821 4.78266 5.75 4.20321 5.75 3.5H4.25ZM3 4.25C2.5943 4.25 2.25588 4.12573 2.03579 3.96066C1.81593 3.79577 1.75 3.62522 1.75 3.5H0.25C0.25 4.20321 0.631789 4.78266 1.13579 5.16066C1.63955 5.53849 2.30113 5.75 3 5.75V4.25ZM1.75 3.5C1.75 3.37478 1.81593 3.20423 2.03579 3.03934C2.25588 2.87427 2.5943 2.75 3 2.75V1.25C2.30113 1.25 1.63955 1.46151 1.13579 1.83934C0.631789 2.21734 0.25 2.79679 0.25 3.5H1.75ZM3 2.75C3.4057 2.75 3.74412 2.87427 3.96421 3.03934C4.18407 3.20423 4.25 3.37478 4.25 3.5H5.75C5.75 2.79679 5.36821 2.21734 4.86421 1.83934C4.36045 1.46151 3.69887 1.25 3 1.25V2.75ZM13.25 2.5C13.25 2.62522 13.1841 2.79577 12.9642 2.96066C12.7441 3.12573 12.4057 3.25 12 3.25V4.75C12.6989 4.75 13.3604 4.53849 13.8642 4.16066C14.3682 3.78266 14.75 3.20321 14.75 2.5H13.25ZM12 3.25C11.5943 3.25 11.2559 3.12573 11.0358 2.96066C10.8159 2.79577 10.75 2.62522 10.75 2.5H9.25C9.25 3.20321 9.63179 3.78266 10.1358 4.16066C10.6396 4.53849 11.3011 4.75 12 4.75V3.25ZM10.75 2.5C10.75 2.37478 10.8159 2.20423 11.0358 2.03934C11.2559 1.87427 11.5943 1.75 12 1.75V0.25C11.3011 0.25 10.6396 0.461514 10.1358 0.83934C9.63179 1.21734 9.25 1.79679 9.25 2.5H10.75ZM12 1.75C12.4057 1.75 12.7441 1.87427 12.9642 2.03934C13.1841 2.20423 13.25 2.37478 13.25 2.5H14.75C14.75 1.79679 14.3682 1.21734 13.8642 0.83934C13.3604 0.461514 12.6989 0.25 12 0.25V1.75ZM22.25 3.5C22.25 3.62522 22.1841 3.79577 21.9642 3.96066C21.7441 4.12573 21.4057 4.25 21 4.25V5.75C21.6989 5.75 22.3604 5.53849 22.8642 5.16066C23.3682 4.78266 23.75 4.20321 23.75 3.5H22.25ZM21 4.25C20.5943 4.25 20.2559 4.12573 20.0358 3.96066C19.8159 3.79577 19.75 3.62522 19.75 3.5H18.25C18.25 4.20321 18.6318 4.78266 19.1358 5.16066C19.6396 5.53849 20.3011 5.75 21 5.75V4.25ZM19.75 3.5C19.75 3.37478 19.8159 3.20423 20.0358 3.03934C20.2559 2.87427 20.5943 2.75 21 2.75V1.25C20.3011 1.25 19.6396 1.46151 19.1358 1.83934C18.6318 2.21734 18.25 2.79679 18.25 3.5H19.75ZM21 2.75C21.4057 2.75 21.7441 2.87427 21.9642 3.03934C22.1841 3.20423 22.25 3.37478 22.25 3.5H23.75C23.75 2.79679 23.3682 2.21734 22.8642 1.83934C22.3604 1.46151 21.6989 1.25 21 1.25V2.75ZM19 16.25H5V17.75H19V16.25ZM5.7398 16.8767L3.7398 4.8767L2.2602 5.1233L4.2602 17.1233L5.7398 16.8767ZM2.52507 5.58047L8.02507 10.0805L8.97493 8.91953L3.47493 4.41953L2.52507 5.58047ZM9.13275 9.90266L12.6327 4.40266L11.3673 3.59734L7.86725 9.09734L9.13275 9.90266ZM11.3673 4.40266L14.8673 9.90266L16.1327 9.09734L12.6327 3.59734L11.3673 4.40266ZM15.9749 10.0805L21.4749 5.58047L20.5251 4.41953L15.0251 8.91953L15.9749 10.0805ZM20.2602 4.8767L18.2602 16.8767L19.7398 17.1233L21.7398 5.1233L20.2602 4.8767ZM21.75 3.5C21.75 3.91421 21.4142 4.25 21 4.25V5.75C22.2426 5.75 23.25 4.74264 23.25 3.5H21.75ZM21 4.25C20.5858 4.25 20.25 3.91421 20.25 3.5H18.75C18.75 4.74264 19.7574 5.75 21 5.75V4.25ZM20.25 3.5C20.25 3.08579 20.5858 2.75 21 2.75V1.25C19.7574 1.25 18.75 2.25736 18.75 3.5H20.25ZM21 2.75C21.4142 2.75 21.75 3.08579 21.75 3.5H23.25C23.25 2.25736 22.2426 1.25 21 1.25V2.75ZM12.75 2.5C12.75 2.91421 12.4142 3.25 12 3.25V4.75C13.2426 4.75 14.25 3.74264 14.25 2.5H12.75ZM12 3.25C11.5858 3.25 11.25 2.91421 11.25 2.5H9.75C9.75 3.74264 10.7574 4.75 12 4.75V3.25ZM11.25 2.5C11.25 2.08579 11.5858 1.75 12 1.75V0.25C10.7574 0.25 9.75 1.25736 9.75 2.5H11.25ZM12 1.75C12.4142 1.75 12.75 2.08579 12.75 2.5H14.25C14.25 1.25736 13.2426 0.25 12 0.25V1.75ZM3.75 3.5C3.75 3.91421 3.41421 4.25 3 4.25V5.75C4.24264 5.75 5.25 4.74264 5.25 3.5H3.75ZM3 4.25C2.58579 4.25 2.25 3.91421 2.25 3.5H0.75C0.75 4.74264 1.75736 5.75 3 5.75V4.25ZM2.25 3.5C2.25 3.08579 2.58579 2.75 3 2.75V1.25C1.75736 1.25 0.75 2.25736 0.75 3.5H2.25ZM3 2.75C3.41421 2.75 3.75 3.08579 3.75 3.5H5.25C5.25 2.25736 4.24264 1.25 3 1.25V2.75Z" fill="#2A2A2A"/>
</svg>
